<?xml version="1.0" encoding="UTF-8"?>
<svg version="1.1" xmlns="http://www.w3.org/2000/svg" width="553" height="494">
<path d="M0 0 C1.02650036 0.51138582 2.05300072 1.02277164 3.11060715 1.54965401 C3.97350298 1.9765336 3.97350298 1.9765336 4.85383105 2.41203701 C6.77358381 3.36361326 8.68896148 4.32367309 10.6044426 5.28381538 C11.98260884 5.96922765 13.36102305 6.6541415 14.73966599 7.33859444 C18.47775488 9.19653588 22.21195552 11.06216552 25.94523335 12.92975187 C29.06085237 14.48762122 32.17820022 16.04201418 35.29550815 17.59650052 C42.64577922 21.26202193 49.99276458 24.9340693 57.33784103 28.60998726 C64.92261757 32.40570107 72.51323061 36.18954789 80.1067307 39.96777523 C86.62333325 43.21075524 93.1360664 46.46141145 99.64577174 49.71821415 C103.53519417 51.66396133 107.42608124 53.60662806 111.32078934 55.54177666 C114.97942524 57.36000656 118.63315677 59.18772792 122.28327942 61.02298546 C123.62598674 61.69605184 124.9704215 62.36568435 126.31665039 63.03167915 C128.14888405 63.9387706 129.97443822 64.85931749 131.79957199 65.78061104 C132.82456425 66.29275091 133.8495565 66.80489079 134.90560913 67.33255005 C137.20112228 68.79211617 137.20112228 68.79211617 138.20112228 71.79211617 C117.74112228 82.02211617 97.28112228 92.25211617 76.20112228 102.79211617 C76.14930187 121.51968766 76.14930187 121.51968766 76.17353439 140.24719429 C76.15291982 142.6059438 76.12973528 144.96467285 76.10346603 147.32336617 C76.12479599 149.14046089 76.12479599 149.14046089 76.14655685 150.9942646 C76.02896683 158.1051741 75.22104084 162.1714241 70.04854965 167.21655464 C69.43889862 167.73648994 68.82924759 168.25642525 68.20112228 168.79211617 C67.58007111 169.33678535 66.95901993 169.88145454 66.31914902 170.44262886 C57.5141771 177.84061207 46.6540761 181.92843956 35.76362228 185.10461617 C34.9428923 185.34695992 34.12216232 185.58930367 33.27656174 185.83899117 C20.16419779 189.45232333 6.96105341 190.17388327 -6.54887772 190.10461617 C-7.29111588 190.10279335 -8.03335403 190.10097054 -8.79808426 190.09909248 C-20.33219094 190.05152564 -31.5600553 189.57375893 -42.79887772 186.79211617 C-43.47966385 186.6258271 -44.16044998 186.45953804 -44.861866 186.28820992 C-60.06637574 182.40712494 -78.38889467 175.37025676 -87.70566177 162.09446907 C-89.99821221 157.26627369 -89.52294326 151.88382577 -89.50590897 146.63977242 C-89.52103027 145.38450249 -89.53615158 144.12923256 -89.55173111 142.83592415 C-89.58731324 139.51968762 -89.60175943 136.20475665 -89.60576248 132.88842964 C-89.6151284 129.4961341 -89.65229479 126.10414703 -89.68754959 122.71203804 C-89.75454216 116.07165299 -89.77553038 109.4333708 -89.79887772 102.79211617 C-99.03887772 98.17211617 -108.27887772 93.55211617 -117.79887772 88.79211617 C-117.79377609 95.55686615 -117.77073122 102.31651667 -117.70122147 109.0802021 C-117.68304933 111.38092377 -117.67549514 113.68175474 -117.67876053 115.98254585 C-117.681614 119.28972322 -117.64633477 122.59462814 -117.60356522 125.90149117 C-117.61265915 126.93078743 -117.62175308 127.96008369 -117.63112259 129.02057076 C-117.57568708 131.74224609 -117.47519657 134.15478078 -116.79887772 136.79211617 C-114.02329283 139.34165423 -114.02329283 139.34165423 -110.79887772 140.79211617 C-106.11052092 146.43778142 -106.21762963 153.1651933 -106.36137772 160.16711617 C-106.35428787 161.16356148 -106.34719803 162.16000679 -106.33989334 163.18664742 C-106.38795822 168.63646474 -106.38795822 168.63646474 -106.79887772 170.79211617 C-109.79887772 172.79211617 -109.79887772 172.79211617 -113.42387772 172.47961617 C-116.79887772 171.79211617 -116.79887772 171.79211617 -117.79887772 170.79211617 C-118.03541294 168.26615357 -118.22061463 165.7610441 -118.36137772 163.22961617 C-118.42615311 162.16323921 -118.42615311 162.16323921 -118.49223709 161.07531929 C-118.59859548 159.31449705 -118.69926618 157.55333297 -118.79887772 155.79211617 C-120.11887772 155.46211617 -121.43887772 155.13211617 -122.79887772 154.79211617 C-124.14979299 157.49394672 -124.1374583 159.91019823 -124.36137772 162.91711617 C-124.44516678 164.01281929 -124.52895584 165.10852242 -124.61528397 166.23742867 C-124.70616287 167.50199898 -124.70616287 167.50199898 -124.79887772 168.79211617 C-127.95224572 169.49286461 -130.52612745 169.79211617 -133.79887772 169.79211617 C-134.47950272 170.30774117 -135.16012772 170.82336617 -135.86137772 171.35461617 C-136.50075272 171.82899117 -137.14012772 172.30336617 -137.79887772 172.79211617 C-138.78887772 172.46211617 -139.77887772 172.13211617 -140.79887772 171.79211617 C-140.91550033 167.75069401 -140.98627121 163.70970751 -141.04887772 159.66711617 C-141.08239334 158.52500679 -141.11590897 157.38289742 -141.15044022 156.20617867 C-141.22553252 149.74824035 -141.24933548 145.64716099 -136.79887772 140.79211617 C-132.37782508 136.79211617 -132.37782508 136.79211617 -129.79887772 136.79211617 C-129.79887772 118.64211617 -129.79887772 100.49211617 -129.79887772 81.79211617 C-131.77887772 81.13211617 -133.75887772 80.47211617 -135.79887772 79.79211617 C-137.17591857 79.17631025 -138.54004344 78.53021227 -139.88481522 77.84680367 C-140.58735428 77.49231148 -141.28989334 77.13781929 -142.01372147 76.77258492 C-143.08299881 76.22537788 -143.08299881 76.22537788 -144.17387772 75.66711617 C-144.9099324 75.2945771 -145.64598709 74.92203804 -146.40434647 74.53820992 C-148.2043813 73.62650396 -150.00189174 72.70981684 -151.79887772 71.79211617 C-151.79887772 71.13211617 -151.79887772 70.47211617 -151.79887772 69.79211617 C-133.11849433 60.37020822 -114.43014032 50.96428851 -95.73213291 41.57740116 C-87.05075054 37.21865338 -78.37206569 32.8546878 -69.69951248 28.47839546 C-62.14160264 24.66458446 -54.57884285 20.8606017 -47.01006573 17.06840044 C-43.00162052 15.05961009 -38.99579714 13.04594328 -34.99574089 11.02049255 C-31.23189519 9.11484229 -27.46171146 7.22238716 -23.68622398 5.33991241 C-22.30066602 4.64616927 -20.9175071 3.94761097 -19.53696442 3.24394035 C-17.65316736 2.28465575 -15.76154269 1.34299221 -13.86694717 0.40526009 C-12.80965062 -0.12661447 -11.75235407 -0.65848902 -10.66301823 -1.20648098 C-6.37609624 -2.70533758 -4.06717484 -1.75523022 0 0 Z " fill="#43A9C6" transform="translate(282.79887771606445,2.207883834838867)"/>
<path d="M0 0 C4.71392229 1.43439977 9.01122966 3.39028144 13.37890625 5.6394043 C14.44841019 6.18357498 14.44841019 6.18357498 15.53952026 6.73873901 C17.07901234 7.52227618 18.61764082 8.30751199 20.15548706 9.09427452 C22.59120076 10.33888437 25.03043817 11.57629979 27.47094727 12.81147766 C34.40670359 16.32200311 41.34023014 19.83669457 48.26074219 23.37719727 C52.50122179 25.54595522 56.74935066 27.69901549 61.00289917 29.84202003 C62.61975685 30.66034307 64.23367268 31.48450602 65.84451294 32.31461143 C68.09618878 33.47419953 70.35707517 34.61352423 72.62109375 35.7487793 C73.28205048 36.09520981 73.9430072 36.44164032 74.62399292 36.79856873 C78.88662773 38.90211708 81.45256665 39.39994307 86 38 C88.60739298 36.86593928 91.10188835 35.69247785 93.62597656 34.39819336 C94.3649115 34.02741165 95.10384644 33.65662994 95.86517334 33.27461243 C98.29409552 32.05368707 100.71723284 30.82170355 103.140625 29.58984375 C104.83078733 28.73848958 106.5213658 27.88796112 108.21234131 27.03822327 C112.65371475 24.80425721 117.0905398 22.56141568 121.52612305 20.315979 C128.63893119 16.71638297 135.75720167 13.12764917 142.87804413 9.54397774 C145.36726432 8.28912026 147.85369554 7.02886139 150.33990479 5.76805115 C151.85704528 5.00265623 153.37427277 4.23743368 154.89160156 3.47241211 C155.58564087 3.11865509 156.27968018 2.76489807 156.99475098 2.40042114 C161.77273247 0 161.77273247 0 164 0 C164.16279133 7.42374882 164.28686871 14.84710776 164.3626852 22.27228546 C164.39909022 25.72090569 164.44839535 29.1682976 164.52807617 32.61621094 C164.61927439 36.58773662 164.65275967 40.55877962 164.68359375 44.53125 C164.71972275 45.75863892 164.75585175 46.98602783 164.79307556 48.25061035 C164.7957647 54.15360378 164.61658818 58.06205276 160.67993164 62.65039062 C159.49062217 63.80661372 158.26426733 64.92625096 157 66 C156.37866684 66.54466919 155.75733368 67.08933838 155.11717224 67.6505127 C146.31496953 75.04993157 135.45148861 79.13675072 124.5625 82.3125 C123.33140503 82.67601562 123.33140503 82.67601562 122.07543945 83.046875 C108.9630755 86.66020717 95.75993113 87.3817671 82.25 87.3125 C81.50776184 87.31067719 80.76552368 87.30885437 80.00079346 87.30697632 C68.46668677 87.25940948 57.23882241 86.78164277 46 84 C45.31921387 83.83371094 44.63842773 83.66742188 43.93701172 83.49609375 C28.73885213 79.61662971 10.39273112 72.57512309 1.07978821 59.30235291 C-1.18914174 54.46448062 -0.59987493 49.08293507 -0.48828125 43.84765625 C-0.48120651 42.59238632 -0.47413177 41.33711639 -0.46684265 40.04380798 C-0.44367379 36.72722711 -0.39886117 33.41240731 -0.34332275 30.09631348 C-0.29191683 26.70433669 -0.26928351 23.312177 -0.24414062 19.91992188 C-0.18912474 13.27946618 -0.10553551 6.63983463 0 0 Z " fill="#333468" transform="translate(194,105)"/>
<path d="M0 0 C1.30529663 0.02767456 1.30529663 0.02767456 2.63696289 0.0559082 C46.59731739 1.46671261 93.77145083 16.35313877 128.05859375 44.6484375 C128.68870361 45.1655127 129.31881348 45.68258789 129.96801758 46.21533203 C131.1716475 47.21679036 132.36122489 48.23545538 133.53393555 49.27294922 C135.31516433 50.83507143 135.31516433 50.83507143 138.1875 52.5 C142.26866403 51.77907581 144.77189804 49.32885777 147.8125 46.625 C183.33887054 16.92419022 232.05260873 0.94556389 278 0.125 C279.26348267 0.08584473 279.26348267 0.08584473 280.55249023 0.04589844 C281.34598877 0.04364258 282.1394873 0.04138672 282.95703125 0.0390625 C283.65417236 0.03084473 284.35131348 0.02262695 285.06958008 0.01416016 C288.28095926 0.75083388 289.91452977 2.14596563 292.1875 4.5 C292.80273438 7.35327148 292.80273438 7.35327148 292.78125 10.62109375 C292.77738281 12.39516602 292.77738281 12.39516602 292.7734375 14.20507812 C292.74507813 15.43677734 292.71671875 16.66847656 292.6875 17.9375 C292.69007813 19.16533203 292.69265625 20.39316406 292.6953125 21.65820312 C292.58405122 31.87755154 292.58405122 31.87755154 289.1875 36.5 C286.2225611 37.98246945 283.44337926 37.76083659 280.13671875 37.89453125 C278.65255118 37.96052388 277.16842157 38.02737446 275.68432617 38.0949707 C274.90044525 38.12982574 274.11656433 38.16468079 273.30892944 38.20059204 C229.47528392 40.21598892 183.56086868 47.76189279 144.28125 68.34765625 C139.21155952 70.23598793 135.7977923 68.85247285 131.0703125 66.71484375 C129.48320137 65.95818599 127.89733754 65.19890834 126.3125 64.4375 C89.71454264 47.48733204 47.97860958 39.4067182 7.796875 38.3046875 C6.74363037 38.2727832 5.69038574 38.24087891 4.60522461 38.20800781 C2.58563185 38.15402074 0.56543157 38.1185137 -1.45483398 38.10449219 C-8.19356972 37.943832 -8.19356972 37.943832 -11.39453125 35.6484375 C-14.88503533 30.35979495 -14.11182867 24.23374035 -14.1875 18.125 C-14.22488281 16.98804688 -14.26226562 15.85109375 -14.30078125 14.6796875 C-14.387715 6.44995903 -14.387715 6.44995903 -11.83984375 2.2421875 C-7.73673705 -0.11908423 -4.65755192 -0.17450362 0 0 Z " fill="#43A8C9" transform="translate(136.8125,274.5)"/>
<path d="M0 0 C0.74886475 0.00523682 1.49772949 0.01047363 2.26928711 0.01586914 C3.07817383 0.0190918 3.88706055 0.02231445 4.72045898 0.02563477 C5.5705957 0.03401367 6.42073242 0.04239258 7.29663086 0.05102539 C8.15063477 0.05553711 9.00463867 0.06004883 9.88452148 0.06469727 C12.00108749 0.07652166 14.11761771 0.0944577 16.23413086 0.11352539 C16.25746144 13.91693426 16.2750444 27.72034009 16.28594303 41.52376461 C16.29117252 47.93251667 16.29827136 54.34125554 16.30957031 60.75 C16.32039685 66.9291198 16.32640719 73.10822687 16.3290081 79.28735542 C16.33086278 81.65058149 16.33448418 84.01380683 16.33986092 86.37702751 C16.34706824 89.67454436 16.34812193 92.97200786 16.34765625 96.26953125 C16.35125153 97.25711426 16.3548468 98.24469727 16.35855103 99.26220703 C16.35717636 100.15548203 16.3558017 101.04875702 16.35438538 101.96910095 C16.35530717 102.74985961 16.35622896 103.53061827 16.35717869 104.33503628 C16.23413086 106.11352539 16.23413086 106.11352539 15.23413086 107.11352539 C12.40826335 107.26675283 9.62369204 107.34515294 6.79663086 107.36352539 C6.00708008 107.38415039 5.2175293 107.40477539 4.40405273 107.42602539 C2.11303711 107.44165039 2.11303711 107.44165039 -1.76586914 107.11352539 C-2.42586914 106.12352539 -3.08586914 105.13352539 -3.76586914 104.11352539 C-5.40555664 105.10352539 -5.40555664 105.10352539 -7.07836914 106.11352539 C-12.88247127 108.98989459 -18.91279308 109.31640556 -25.10571289 107.38305664 C-30.83391364 104.76963172 -33.68063746 101.32418252 -36.45336914 95.67602539 C-38.64490678 89.7275661 -38.92450648 84.04032985 -38.93383789 77.75024414 C-38.93716629 76.95882523 -38.94049469 76.16740631 -38.94392395 75.352005 C-38.94896641 73.68373186 -38.95133311 72.01544872 -38.95117188 70.34716797 C-38.95335342 67.81924474 -38.97152398 65.29176193 -38.99047852 62.76391602 C-38.99341415 61.1343602 -38.99539781 59.50480233 -38.99633789 57.87524414 C-39.00352341 57.1311882 -39.01070892 56.38713226 -39.01811218 55.62052917 C-38.9808634 46.89474171 -37.43231674 38.95661238 -31.76586914 32.11352539 C-27.10263048 28.47619923 -23.44955435 26.95836322 -17.57836914 26.80102539 C-16.22678711 26.74495117 -16.22678711 26.74495117 -14.84790039 26.68774414 C-10.65914081 27.26641942 -7.42566222 29.06771783 -3.76586914 31.11352539 C-3.72828491 29.75819702 -3.72828491 29.75819702 -3.68994141 28.37548828 C-3.59499597 25.03388259 -3.49575293 21.69246287 -3.39355469 18.35107422 C-3.35015284 16.90288299 -3.3084817 15.45463885 -3.26855469 14.00634766 C-3.21097852 11.9286298 -3.14724886 9.85117966 -3.08227539 7.77368164 C-3.04561768 6.52208252 -3.00895996 5.2704834 -2.97119141 3.98095703 C-2.69855773 0.17348671 -2.69855773 0.17348671 0 0 Z M-17.76586914 46.11352539 C-20.28857966 49.77162068 -20.0886788 53.66651846 -20.10180664 57.94946289 C-20.10846344 58.70643463 -20.11512024 59.46340637 -20.12197876 60.24331665 C-20.13208513 61.84195534 -20.1367964 63.44063604 -20.13647461 65.03930664 C-20.14084239 67.47361491 -20.17716458 69.90610082 -20.21508789 72.34008789 C-20.22095779 73.89737339 -20.22492602 75.45466746 -20.22680664 77.01196289 C-20.24117767 77.73402924 -20.25554871 78.45609558 -20.27035522 79.20004272 C-20.22478644 84.2903968 -19.06079478 87.24896106 -15.76586914 91.11352539 C-12.36617103 92.44445699 -12.36617103 92.44445699 -8.76586914 92.11352539 C-5.96397468 90.34711367 -4.25062003 89.08302717 -2.76586914 86.11352539 C-2.63038392 83.40064406 -2.55318568 80.71467426 -2.52758789 78.00024414 C-2.51951614 77.19367874 -2.5114444 76.38711334 -2.50312805 75.55610657 C-2.48928771 73.84715932 -2.47856532 72.13818443 -2.47070312 70.42919922 C-2.45350408 67.82148509 -2.4096212 65.21504352 -2.36547852 62.60766602 C-2.35535017 60.94686804 -2.34683451 59.28605929 -2.34008789 57.62524414 C-2.3225798 56.84799484 -2.30507172 56.07074554 -2.28703308 55.26994324 C-2.30189725 51.54098181 -2.62487992 49.34068817 -4.60888672 46.14404297 C-9.05125699 41.96213085 -13.17988295 42.41925874 -17.76586914 46.11352539 Z " fill="#343569" transform="translate(469.765869140625,385.886474609375)"/>
<path d="M0 0 C6.93937992 7.51344055 7.28742917 15.13159855 7 25 C3.82606311 26.58696844 0.41825795 26.1431447 -3.0625 26.125 C-3.80822266 26.12886719 -4.55394531 26.13273437 -5.32226562 26.13671875 C-10.87336499 26.12663501 -10.87336499 26.12663501 -12 25 C-12.10546754 23.41798689 -12.18438364 21.83416646 -12.25 20.25 C-12.60744846 16.52613391 -12.94115303 15.08916207 -15.0625 11.875 C-18.34650218 9.77882839 -20.23499391 9.26155915 -24.06640625 9.5078125 C-27.41987095 10.3614217 -28.98027505 12.3070334 -31 15 C-32.08712186 18.1980989 -32.13222531 21.21441725 -32.14526367 24.57543945 C-32.15164352 25.69372635 -32.15802338 26.81201324 -32.16459656 27.96418762 C-32.16570938 29.16838852 -32.1668222 30.37258942 -32.16796875 31.61328125 C-32.17129715 32.85619431 -32.17462555 34.09910736 -32.17805481 35.37968445 C-32.18311816 38.00987376 -32.18546332 40.64006949 -32.18530273 43.27026367 C-32.18522145 45.95978516 -32.19216621 48.64913645 -32.20581055 51.33862305 C-32.22415371 55.22189529 -32.2290404 59.10496997 -32.23046875 62.98828125 C-32.23765427 64.18640945 -32.24483978 65.38453766 -32.25224304 66.61897278 C-32.23639588 72.42777458 -32.18354253 77.57141108 -30 83 C-26.51045639 85.46320726 -22.94551588 85.27469512 -18.8671875 84.58984375 C-15.58142108 83.55187151 -14.56599082 82.00670237 -13 79 C-12.59809663 76.64947424 -12.37752814 74.37035557 -12.2734375 71.98828125 C-12 70 -12 70 -10 68 C-7.08047432 68.01748219 -4.27702115 68.13944633 -1.375 68.375 C-0.17230469 68.46007812 -0.17230469 68.46007812 1.0546875 68.546875 C3.03715498 68.68847982 5.01869051 68.84302259 7 69 C7.60662282 78.95872469 6.41343211 85.86403018 0.25 93.8125 C-4.60886009 99.12764898 -11.03406454 101.74317728 -18.13671875 102.203125 C-28.84102254 102.34443594 -36.29342474 101.45987938 -44.2734375 93.97265625 C-49.23816707 88.30028423 -51.11475156 81.9852092 -51.17700195 74.56005859 C-51.18357315 73.91083435 -51.19014435 73.26161011 -51.19691467 72.5927124 C-51.21661817 70.44461949 -51.22830674 68.29659658 -51.23828125 66.1484375 C-51.24439454 65.044093 -51.24439454 65.044093 -51.25063133 63.91743851 C-51.27148459 60.01673922 -51.28578664 56.11607498 -51.29516602 52.21533203 C-51.30619844 48.2039835 -51.34056301 44.19319459 -51.38033772 40.18204308 C-51.40660608 37.08317094 -51.41486708 33.98442974 -51.41844749 30.88545609 C-51.42329114 29.40799833 -51.43484115 27.93054554 -51.45348549 26.45319748 C-51.57300721 16.35040602 -50.43864585 9.25910542 -44.875 0.75 C-32.35675452 -11.22397394 -12.93519204 -10.97607557 0 0 Z " fill="#343569" transform="translate(51,392)"/>
<path d="M0 0 C7.52969652 -0.02526648 15.0593822 -0.04283141 22.58911133 -0.05493164 C25.15291757 -0.0599737 27.71672091 -0.06680714 30.28051758 -0.07543945 C33.95655021 -0.08751064 37.63254498 -0.09322942 41.30859375 -0.09765625 C42.46274277 -0.10281754 43.61689178 -0.10797882 44.80601501 -0.11329651 C46.3975515 -0.11340981 46.3975515 -0.11340981 48.02124023 -0.11352539 C48.96055893 -0.115746 49.89987762 -0.11796661 50.86766052 -0.12025452 C53 0 53 0 54 1 C54.12537741 3.14307896 54.17574364 5.29078886 54.1875 7.4375 C54.20167969 8.61183594 54.21585937 9.78617187 54.23046875 10.99609375 C54 14 54 14 52 16 C49.41896694 16.17502995 46.94691837 16.23162279 44.3671875 16.1953125 C43.23943405 16.19106766 43.23943405 16.19106766 42.08889771 16.18673706 C39.68410422 16.17552874 37.27968119 16.15042352 34.875 16.125 C33.24609912 16.11497102 31.61719242 16.10584503 29.98828125 16.09765625 C25.99192945 16.07728748 21.9963801 16.03814149 18 16 C18.33 25.24 18.66 34.48 19 44 C25.93 44.33 32.86 44.66 40 45 C40 50.28 40 55.56 40 61 C29.605 61.495 29.605 61.495 19 62 C19 71.24 19 80.48 19 90 C21.44277344 90.06058594 23.88554687 90.12117188 26.40234375 90.18359375 C28.75874063 90.24533798 31.1150873 90.30874433 33.47143555 90.37231445 C35.11364303 90.41572297 36.75589739 90.45739358 38.39819336 90.49731445 C40.75388745 90.5548744 43.10934428 90.61860892 45.46484375 90.68359375 C46.20339096 90.70030624 46.94193817 90.71701874 47.7028656 90.73423767 C52.88612829 90.88612829 52.88612829 90.88612829 54 92 C54.09909302 94.33160055 54.12970504 96.66629942 54.125 99 C54.12886719 100.918125 54.12886719 100.918125 54.1328125 102.875 C54 106 54 106 53 107 C51.37872577 107.09861598 49.75317632 107.12798767 48.12890625 107.12939453 C46.57224243 107.13412277 46.57224243 107.13412277 44.98413086 107.13894653 C43.29042358 107.13591019 43.29042358 107.13591019 41.5625 107.1328125 C39.83688843 107.13424759 39.83688843 107.13424759 38.07641602 107.13571167 C35.63850856 107.13639369 33.2005993 107.1345379 30.76269531 107.13037109 C27.01623482 107.12502317 23.26989423 107.13031539 19.5234375 107.13671875 C17.16145807 107.13605797 14.79947871 107.13477682 12.4375 107.1328125 C11.30836182 107.13483673 10.17922363 107.13686096 9.01586914 107.13894653 C7.45920532 107.13421829 7.45920532 107.13421829 5.87109375 107.12939453 C4.95255615 107.12859894 4.03401855 107.12780334 3.08764648 107.12698364 C1 107 1 107 0 106 C-0.0953919 104.62123975 -0.12188622 103.23763084 -0.12025452 101.85557556 C-0.12162918 100.96230057 -0.12300385 100.06902557 -0.12442017 99.14868164 C-0.12082489 98.16109863 -0.11722961 97.17351562 -0.11352539 96.15600586 C-0.11367142 95.12198135 -0.11381744 94.08795685 -0.1139679 93.02259827 C-0.11326827 89.58665914 -0.10547358 86.15077347 -0.09765625 82.71484375 C-0.09579225 80.33972707 -0.09436826 77.96461 -0.09336853 75.5894928 C-0.08954197 69.32423856 -0.0797105 63.05900733 -0.06866455 56.79376221 C-0.0584534 50.4061311 -0.05387155 44.01849629 -0.04882812 37.63085938 C-0.03808836 25.08722974 -0.02120127 12.54361609 0 0 Z " fill="#343569" transform="translate(368,386)"/>
<path d="M0 0 C4.23301121 2.82200747 7.17159664 5.95228992 8.8125 10.875 C9.34095101 17.11072196 8.61135497 21.75581129 4.8125 26.875 C3.78125 27.49375 2.75 28.1125 1.6875 28.75 C-1.6823701 31.24077355 -1.63842151 31.85762575 -2.25 35.8125 C-2.43949219 37.12347656 -2.43949219 37.12347656 -2.6328125 38.4609375 C-3.45559063 42.04176063 -5.31687018 43.7045238 -8.1875 45.875 C-10.8937437 46.77708123 -12.42600986 46.99727599 -15.19995117 46.98852539 C-16.00055466 46.98844986 -16.80115814 46.98837433 -17.62602234 46.98829651 C-18.48548965 46.98313522 -19.34495697 46.97797394 -20.23046875 46.97265625 C-21.1140657 46.9712413 -21.99766266 46.96982635 -22.90803528 46.96836853 C-25.73039128 46.96277069 -28.55266797 46.95021861 -31.375 46.9375 C-33.28841031 46.93248472 -35.20182187 46.92792186 -37.11523438 46.92382812 C-41.80604473 46.91365283 -46.49668358 46.89407698 -51.1875 46.875 C-50.8575 57.105 -50.5275 67.335 -50.1875 77.875 C-48.29 76.72 -46.3925 75.565 -44.4375 74.375 C-21.11484199 60.80080263 10.56513674 51.02051433 37.8125 53.875 C40.8125 55.875 40.8125 55.875 41.625 58.75 C41.82428449 62.07140821 41.65769765 63.1853543 39.8125 65.875 C37.82299805 66.65917969 37.82299805 66.65917969 35.38671875 67.046875 C34.48743652 67.19447266 33.5881543 67.34207031 32.66162109 67.49414062 C28.96890869 67.98776799 25.27463838 68.42352253 21.56933594 68.8112793 C-15.8770922 72.80121795 -51.22156027 87.78807494 -80.1875 111.875 C-80.83203125 112.40738281 -81.4765625 112.93976563 -82.140625 113.48828125 C-83.49452359 114.61125788 -84.84201318 115.74195847 -86.1875 116.875 C-86.8475 116.545 -87.5075 116.215 -88.1875 115.875 C-74.93274335 95.73673446 -74.93274335 95.73673446 -66.07763672 89.78466797 C-64.19021086 88.21295429 -63.31088986 87.31474375 -62.64256287 84.93292236 C-62.44712796 82.56442919 -62.43512798 80.25878536 -62.48828125 77.8828125 C-62.48168991 77.01864716 -62.47509857 76.15448181 -62.4683075 75.26412964 C-62.45085544 72.50863131 -62.47277854 69.75539032 -62.5 67 C-62.51133461 64.25220182 -62.51388163 61.50508123 -62.4995575 58.7572937 C-62.49222633 57.05100828 -62.5001867 55.34456483 -62.5259552 53.63845825 C-62.52260606 47.50243712 -61.66239401 42.8178013 -57.58496094 37.96948242 C-53.76300978 36.22469556 -49.98246521 36.39357859 -45.828125 36.36328125 C-44.92374695 36.34533005 -44.0193689 36.32737885 -43.08758545 36.30888367 C-40.2042708 36.25478143 -37.32112168 36.22088526 -34.4375 36.1875 C-32.48044572 36.15432685 -30.52341328 36.11983719 -28.56640625 36.08398438 C-23.77355693 35.99905496 -18.98075671 35.9322433 -14.1875 35.875 C-13.8575 34.225 -13.5275 32.575 -13.1875 30.875 C-14.095 30.33875 -15.0025 29.8025 -15.9375 29.25 C-20.43573357 26.21927525 -22.72026969 22.71054766 -24.0625 17.4375 C-24.24432905 12.25537201 -23.20834311 8.53859618 -20.5 4.125 C-14.66178218 -1.55542815 -7.53866114 -2.66070393 0 0 Z M-11.375 10 C-13.4759656 11.80820773 -13.4759656 11.80820773 -13.625 14.875 C-13.37731333 17.79638639 -13.37731333 17.79638639 -12.125 19.8125 C-8.97183176 21.54165678 -6.56241745 20.7340699 -3.1875 19.875 C-0.92607742 17.12805475 -0.92607742 17.12805475 -1.3125 14.375 C-2.37382977 11.34262924 -3.40925186 10.42755043 -6.1875 8.875 C-9.15282836 8.64632599 -9.15282836 8.64632599 -11.375 10 Z " fill="#409ED6" transform="translate(371.1875,191.125)"/>
<path d="M0 0 C5.66421772 4.60412559 8.45120541 9.93985158 10 17 C10.38146434 21.32222024 10.37556077 25.60144171 10.3125 29.9375 C10.31572266 31.07251953 10.31894531 32.20753906 10.32226562 33.37695312 C10.26745855 41.73254145 10.26745855 41.73254145 8 44 C5.34708243 44.17510386 2.80013826 44.23155483 0.1484375 44.1953125 C-0.62559418 44.1924826 -1.39962585 44.18965271 -2.19711304 44.18673706 C-4.67323157 44.17552754 -7.1489905 44.15042203 -9.625 44.125 C-11.30207812 44.11497118 -12.97916189 44.10584516 -14.65625 44.09765625 C-18.77097223 44.07558574 -22.88542511 44.04105102 -27 44 C-26.69052329 45.93798521 -26.37731166 47.87537426 -26.0625 49.8125 C-25.88847656 50.89144531 -25.71445313 51.97039062 -25.53515625 53.08203125 C-25.06128079 56.04933356 -25.06128079 56.04933356 -24 59 C-20.98797281 59.59210791 -18.0749241 60.03191963 -15 60 C-11.60717981 57.67859671 -10.0751535 54.48950394 -8 51 C-5.35375716 51.14021805 -2.70815422 51.28689776 -0.0625 51.4375 C0.69224609 51.47681641 1.44699219 51.51613281 2.22460938 51.55664062 C7.88671875 51.88671875 7.88671875 51.88671875 9 53 C9.08427732 60.85464665 6.81455096 66.11999437 1.3125 71.75 C-6.49580767 77.62076234 -15.56330914 77.78730213 -25 77 C-31.5788147 75.83732288 -36.61081891 73.04286507 -41 68 C-44.79808243 61.70312029 -45.60600893 55.86694922 -45.56640625 48.62890625 C-45.57260483 47.66653549 -45.57880341 46.70416473 -45.58518982 45.71263123 C-45.59225152 43.68986007 -45.58917831 41.66703033 -45.57641602 39.64428711 C-45.56255014 36.57360407 -45.5966771 33.5059735 -45.63476562 30.43554688 C-45.63571705 28.4583326 -45.63385674 26.48111456 -45.62890625 24.50390625 C-45.64216446 23.59943253 -45.65542267 22.6949588 -45.66908264 21.76307678 C-45.56129872 14.27142279 -43.472549 7.427038 -38.02540588 2.05128479 C-27.63839779 -6.42753955 -11.48376087 -6.60735026 0 0 Z M-22.8125 13.625 C-27.55083637 18.76947949 -27 21.65060569 -27 29 C-21.06 29 -15.12 29 -9 29 C-8.58473115 22.01067711 -8.58473115 22.01067711 -10.5625 15.4375 C-12.88023062 12.75244266 -12.88023062 12.75244266 -16.4375 11.875 C-20.0266094 11.721761 -20.0266094 11.721761 -22.8125 13.625 Z " fill="#343569" transform="translate(144,417)"/>
<path d="M0 0 C5.66421772 4.60412559 8.45120541 9.93985158 10 17 C10.38146434 21.32222024 10.37556077 25.60144171 10.3125 29.9375 C10.31572266 31.07251953 10.31894531 32.20753906 10.32226562 33.37695312 C10.26745855 41.73254145 10.26745855 41.73254145 8 44 C5.34708243 44.17510386 2.80013826 44.23155483 0.1484375 44.1953125 C-0.62559418 44.1924826 -1.39962585 44.18965271 -2.19711304 44.18673706 C-4.67323157 44.17552754 -7.1489905 44.15042203 -9.625 44.125 C-11.30207812 44.11497118 -12.97916189 44.10584516 -14.65625 44.09765625 C-18.77097223 44.07558574 -22.88542511 44.04105102 -27 44 C-26.69052329 45.93798521 -26.37731166 47.87537426 -26.0625 49.8125 C-25.88847656 50.89144531 -25.71445313 51.97039062 -25.53515625 53.08203125 C-25.06128079 56.04933356 -25.06128079 56.04933356 -24 59 C-20.98797281 59.59210791 -18.0749241 60.03191963 -15 60 C-11.60717981 57.67859671 -10.0751535 54.48950394 -8 51 C-5.35375716 51.14021805 -2.70815422 51.28689776 -0.0625 51.4375 C0.69224609 51.47681641 1.44699219 51.51613281 2.22460938 51.55664062 C7.88671875 51.88671875 7.88671875 51.88671875 9 53 C9.08427732 60.85464665 6.81455096 66.11999437 1.3125 71.75 C-6.49580767 77.62076234 -15.56330914 77.78730213 -25 77 C-31.5788147 75.83732288 -36.61081891 73.04286507 -41 68 C-44.79808243 61.70312029 -45.60600893 55.86694922 -45.56640625 48.62890625 C-45.57260483 47.66653549 -45.57880341 46.70416473 -45.58518982 45.71263123 C-45.59225152 43.68986007 -45.58917831 41.66703033 -45.57641602 39.64428711 C-45.56255014 36.57360407 -45.5966771 33.5059735 -45.63476562 30.43554688 C-45.63571705 28.4583326 -45.63385674 26.48111456 -45.62890625 24.50390625 C-45.64216446 23.59943253 -45.65542267 22.6949588 -45.66908264 21.76307678 C-45.56129872 14.27142279 -43.472549 7.427038 -38.02540588 2.05128479 C-27.63839779 -6.42753955 -11.48376087 -6.60735026 0 0 Z M-22.8125 13.625 C-27.55083637 18.76947949 -27 21.65060569 -27 29 C-21.06 29 -15.12 29 -9 29 C-8.58473115 22.01067711 -8.58473115 22.01067711 -10.5625 15.4375 C-12.88023062 12.75244266 -12.88023062 12.75244266 -16.4375 11.875 C-20.0266094 11.721761 -20.0266094 11.721761 -22.8125 13.625 Z " fill="#343569" transform="translate(268,417)"/>
<path d="M0 0 C4.23301121 2.82200747 7.17159664 5.95228992 8.8125 10.875 C9.3418356 17.12116011 8.60146259 21.74267795 4.8125 26.875 C2.81841923 28.21716975 0.81948975 29.5522113 -1.1875 30.875 C-1.41690019 33.45087756 -1.41690019 33.45087756 -1.1875 35.875 C0.62838623 35.88116333 0.62838623 35.88116333 2.48095703 35.88745117 C6.98773325 35.90928144 11.49364125 35.96361153 16 36.02758789 C17.94750627 36.05073395 19.89513711 36.06515563 21.84277344 36.07055664 C24.64857302 36.07987109 27.45242254 36.12091506 30.2578125 36.16796875 C31.12366974 36.1640361 31.98952698 36.16010345 32.88162231 36.15605164 C37.11132114 36.25732494 39.96846679 36.55453707 43.34716797 39.23168945 C46.3910959 42.49536619 46.94734637 44.629517 46.85913086 48.92822266 C46.84679916 49.73981842 46.83446747 50.55141418 46.82176208 51.38760376 C46.80710403 52.26258514 46.79244598 53.13756653 46.77734375 54.0390625 C46.77131062 55.90233683 46.76814827 57.76562224 46.76757812 59.62890625 C46.76586422 62.55967852 46.75029957 65.48639306 46.68579102 68.41650391 C46.09788838 79.77675511 46.09788838 79.77675511 49.96264648 90.06176758 C52.46917554 92.30134541 54.9939873 94.05702973 57.8125 95.875 C63.51321831 101.5672414 68.63974324 107.97691148 72.8125 114.875 C72.8125 115.535 72.8125 116.195 72.8125 116.875 C69.17123003 115.30475537 66.58798831 113.04944315 63.625 110.4375 C35.11102765 86.09717601 -2.33062621 71.86318534 -39.4375 68.35546875 C-40.30383057 68.27321045 -41.17016113 68.19095215 -42.06274414 68.10620117 C-43.7351764 67.95529185 -45.40891937 67.81809949 -47.08374023 67.6965332 C-52.75309749 67.20941264 -52.75309749 67.20941264 -54.90258789 65.5546875 C-57.03969869 62.76097246 -56.54918101 60.25068939 -56.1875 56.875 C-55.06640625 55.1796875 -55.06640625 55.1796875 -53.1875 53.875 C-22.94640975 49.67827727 10.02148348 63.84165278 35.8125 77.875 C35.8125 67.975 35.8125 58.075 35.8125 47.875 C33.06679687 47.83761719 30.32109375 47.80023438 27.4921875 47.76171875 C24.82120988 47.71545443 22.15036967 47.66423866 19.47949219 47.61254883 C17.62899181 47.57937704 15.77839214 47.55132113 13.92773438 47.52856445 C11.26128997 47.4948755 8.5957491 47.4425534 5.9296875 47.38671875 C5.10757782 47.38032883 4.28546814 47.3739389 3.43844604 47.36735535 C-2.28602076 47.22215113 -6.59463502 46.19963757 -11 42.25 C-12.2748844 39.70023121 -12.35253238 38.18610159 -12.5 35.375 C-12.62316347 33.0103772 -12.62316347 33.0103772 -13.1875 30.875 C-15.96617705 28.60583907 -15.96617705 28.60583907 -19.1875 26.875 C-22.78019879 23.0932118 -23.51574744 20.00875137 -23.75 14.9375 C-23.57083652 10.12397462 -22.91800501 6.87747767 -19.734375 3.2109375 C-13.94569579 -1.78837636 -7.02783935 -2.48041389 0 0 Z M-11.375 10.5625 C-13.37235834 12.73329303 -13.37235834 12.73329303 -13.625 15.4375 C-13.32753166 17.86944204 -13.32753166 17.86944204 -12.125 19.75 C-8.98455307 21.57348531 -6.5889687 20.7408284 -3.1875 19.875 C-0.92607742 17.12805475 -0.92607742 17.12805475 -1.3125 14.375 C-2.37382977 11.34262924 -3.40925186 10.42755043 -6.1875 8.875 C-9.25206796 8.56959827 -9.25206796 8.56959827 -11.375 10.5625 Z " fill="#409ED5" transform="translate(196.1875,191.125)"/>
<path d="M0 0 C2.81256281 -0.02684312 5.62487241 -0.04676188 8.4375 -0.0625 C9.23994141 -0.07087891 10.04238281 -0.07925781 10.86914062 -0.08789062 C12.91295221 -0.0965143 14.95683902 -0.0522815 17 0 C18.70912792 1.70912792 18.12488997 3.93207243 18.12597656 6.26660156 C18.13168671 7.95405487 18.13168671 7.95405487 18.13751221 9.67559814 C18.13853943 10.90155701 18.13956665 12.12751587 18.140625 13.390625 C18.15895384 15.96224843 18.17852422 18.53386326 18.19921875 21.10546875 C18.22957299 25.17860919 18.25232281 29.25144281 18.25048828 33.32470703 C18.24954895 37.24285606 18.28834531 41.16017156 18.328125 45.078125 C18.3210553 46.29598694 18.3139856 47.51384888 18.30670166 48.76861572 C18.1829448 55.5685946 18.1829448 55.5685946 21.31542969 61.29589844 C23.98150777 63.29684347 23.98150777 63.29684347 27.625 63.1875 C31.09326346 62.32346824 31.09326346 62.32346824 32.68115234 59.7121582 C34.60730048 54.29063239 34.4606619 49.13201901 34.4765625 43.41796875 C34.49214203 42.20804764 34.50772156 40.99812653 34.52377319 39.75154114 C34.57122137 35.89686694 34.59904611 32.04237378 34.625 28.1875 C34.66144575 24.31489968 34.70198469 20.44240303 34.74765015 16.56990051 C34.77495914 14.16166754 34.79627427 11.75335811 34.81118774 9.34501648 C34.82144989 8.2633168 34.83171204 7.18161713 34.84228516 6.06713867 C34.84878082 5.11038742 34.85527649 4.15363617 34.86196899 3.16789246 C35 1 35 1 36 0 C38.65822657 -0.12658222 41.27887424 -0.18520214 43.9375 -0.1875 C45.0502832 -0.20586914 45.0502832 -0.20586914 46.18554688 -0.22460938 C48.12513629 -0.22988478 50.0642371 -0.12188902 52 0 C54.42166978 2.42166978 54.24151629 3.68141891 54.27105713 6.98622131 C54.26700867 7.67719406 54.26296021 8.36816681 54.25878906 9.08007812 C54.2622937 9.80867538 54.26579834 10.53727264 54.26940918 11.28794861 C54.27823008 13.7024786 54.2723762 16.1167169 54.265625 18.53125 C54.26697155 20.20511939 54.268912 21.8789884 54.27142334 23.55285645 C54.27437508 27.06343301 54.27007538 30.5739079 54.26074219 34.08447266 C54.24934759 38.59073224 54.25590679 43.09675361 54.26788712 47.60300446 C54.27510438 51.06017867 54.27281841 54.51729615 54.26763153 57.97447205 C54.26629466 59.63630705 54.26794405 61.29814715 54.27259064 62.9599762 C54.27765373 65.28009747 54.26994898 67.59982967 54.25878906 69.91992188 C54.26283752 70.61089462 54.26688599 71.30186737 54.27105713 72.01377869 C54.22852925 76.77147075 54.22852925 76.77147075 52 79 C49.25514407 79.14507695 46.61519457 79.18652423 43.875 79.125 C43.12089844 79.11597656 42.36679687 79.10695313 41.58984375 79.09765625 C39.72642746 79.0740687 37.86317407 79.03819719 36 79 C35.34 77.68 34.68 76.36 34 75 C33.2575 75.639375 32.515 76.27875 31.75 76.9375 C26.73352101 80.69985924 21.09367639 80.64237877 15 80 C8.19170056 78.05174635 4.50758844 75.09132851 0.8125 69.0625 C-0.97920541 64.51432472 -1.1256539 59.77154187 -1.12939453 54.93457031 C-1.13254669 53.76025452 -1.13569885 52.58593872 -1.13894653 51.3760376 C-1.1369223 50.12272644 -1.13489807 48.86941528 -1.1328125 47.578125 C-1.13376923 46.28179138 -1.13472595 44.98545776 -1.13571167 43.64984131 C-1.13718062 40.916451 -1.13505857 38.18309351 -1.13037109 35.44970703 C-1.1246516 31.94355305 -1.12797183 28.43747525 -1.13394356 24.93132401 C-1.13841801 21.58441816 -1.13528991 18.23753301 -1.1328125 14.890625 C-1.13483673 13.62921692 -1.13686096 12.36780884 -1.13894653 11.06817627 C-1.13579437 9.90646912 -1.13264221 8.74476196 -1.12939453 7.54785156 C-1.12859894 6.52226135 -1.12780334 5.49667114 -1.12698364 4.44000244 C-1 2 -1 2 0 0 Z " fill="#343569" transform="translate(499,414)"/>
<path d="M0 0 C5.94 0 11.88 0 18 0 C19.38733784 3.46834459 20.31452879 5.97782676 20.96142578 9.51489258 C21.12144073 10.37540726 21.28145569 11.23592194 21.44631958 12.12251282 C21.61098724 13.0372789 21.77565491 13.95204498 21.9453125 14.89453125 C22.12005096 15.84188644 22.29478943 16.78924164 22.474823 17.76530457 C23.02975725 20.78016545 23.57747152 23.79628629 24.125 26.8125 C24.50082604 28.8614155 24.87712278 30.91024472 25.25390625 32.95898438 C26.1747283 37.97167282 27.08907899 42.98550326 28 48 C28.11053207 47.41340103 28.22106415 46.82680206 28.33494568 46.22242737 C29.48205346 40.13884936 30.63456748 34.05631371 31.7902832 27.97436523 C32.22137113 25.70184399 32.65106133 23.42905714 33.0793457 21.15600586 C33.69378705 17.89627023 34.31318398 14.63751049 34.93359375 11.37890625 C35.12529648 10.35599991 35.31699921 9.33309357 35.51451111 8.27919006 C35.69462234 7.33829025 35.87473358 6.39739044 36.06030273 5.42797852 C36.21796616 4.59524918 36.37562958 3.76251984 36.53807068 2.90455627 C37 1 37 1 38 0 C39.33043625 -0.0983721 40.66593344 -0.13078592 42 -0.1328125 C42.804375 -0.13410156 43.60875 -0.13539063 44.4375 -0.13671875 C45.283125 -0.13285156 46.12875 -0.12898438 47 -0.125 C48.2684375 -0.13080078 48.2684375 -0.13080078 49.5625 -0.13671875 C50.366875 -0.13542969 51.17125 -0.13414062 52 -0.1328125 C52.7425 -0.13168457 53.485 -0.13055664 54.25 -0.12939453 C56 0 56 0 57 1 C56.5247496 9.4576114 54.28803927 17.5402653 52.21875 25.71875 C51.84101796 27.2279648 51.46370555 28.73728468 51.08679199 30.2467041 C50.30030879 33.39099213 49.50985555 36.53424527 48.71630859 39.67675781 C47.69763661 43.71151391 46.68741364 47.74832755 45.67989349 51.78588104 C44.90370835 54.89368226 44.12396478 58.00058148 43.34303284 61.10719299 C42.96892706 62.59657439 42.59574573 64.0861883 42.22349548 65.57603455 C41.70523342 67.64729454 41.18239784 69.71734408 40.65820312 71.78710938 C40.36143677 72.96575562 40.06467041 74.14440186 39.75891113 75.35876465 C39 78 39 78 38 79 C36.5112814 79.08669432 35.018555 79.10703494 33.52734375 79.09765625 C32.62822266 79.09443359 31.72910156 79.09121094 30.80273438 79.08789062 C29.38444336 79.07532227 29.38444336 79.07532227 27.9375 79.0625 C26.98810547 79.05798828 26.03871094 79.05347656 25.06054688 79.04882812 C22.70696631 79.03700109 20.35352419 79.01968094 18 79 C15.22503123 71.1479776 13.17468548 63.15308934 11.171875 55.078125 C10.81505547 53.64564716 10.45822338 52.21317244 10.10137939 50.78070068 C9.35906033 47.79605541 8.62005088 44.81061104 7.8828125 41.82470703 C6.93862217 38.00370913 5.98126306 34.18613895 5.02085495 30.36919022 C4.28116353 27.41980321 3.5509051 24.46813958 2.8232193 21.51576996 C2.4742374 20.10673574 2.12177052 18.69855977 1.76570892 17.29129791 C1.2697378 15.32721593 0.78835734 13.35946698 0.30761719 11.39160156 C-0.10849823 9.71689789 -0.10849823 9.71689789 -0.53302002 8.00836182 C-1 5 -1 5 0 0 Z " fill="#343569" transform="translate(160,414)"/>
<path d="M0 0 C0.79792969 0.00386719 1.59585938 0.00773437 2.41796875 0.01171875 C3.21589844 0.00785156 4.01382813 0.00398438 4.8359375 0 C10.79136108 0.01011108 10.79136108 0.01011108 11.91796875 1.13671875 C12.01547351 2.50047004 12.04428474 3.86921784 12.04495239 5.2364502 C12.04777222 6.11986588 12.05059204 7.00328156 12.05349731 7.91346741 C12.05147308 8.89012863 12.04944885 9.86678986 12.04736328 10.87304688 C12.0491156 11.89571152 12.05086792 12.91837616 12.05267334 13.97203064 C12.05709402 17.37069367 12.0541531 20.76930514 12.05078125 24.16796875 C12.05145423 26.51826996 12.0524242 28.8685711 12.05368042 31.21887207 C12.05515769 36.15194357 12.05300191 41.084997 12.04833984 46.01806641 C12.04264255 52.35722542 12.0459214 58.69634211 12.05191231 65.03549957 C12.05551714 69.89089276 12.05437969 74.74627583 12.05178452 79.60166931 C12.05111503 81.93977361 12.05194441 84.27787881 12.05426407 86.61598206 C12.05678932 89.87747652 12.05295179 93.13890138 12.04736328 96.40039062 C12.04938751 97.37705185 12.05141174 98.35371307 12.05349731 99.35997009 C12.04926758 100.68509361 12.04926758 100.68509361 12.04495239 102.0369873 C12.04457537 102.8090728 12.04419834 103.58115829 12.04380989 104.37664032 C11.91796875 106.13671875 11.91796875 106.13671875 10.91796875 107.13671875 C8.07461827 107.2365885 5.26099712 107.27549756 2.41796875 107.26171875 C1.62003906 107.26558594 0.82210937 107.26945312 0 107.2734375 C-5.95542358 107.26332642 -5.95542358 107.26332642 -7.08203125 106.13671875 C-7.17953601 104.77296746 -7.20834724 103.40421966 -7.20901489 102.0369873 C-7.21183472 101.15357162 -7.21465454 100.27015594 -7.21755981 99.35997009 C-7.21553558 98.38330887 -7.21351135 97.40664764 -7.21142578 96.40039062 C-7.2131781 95.37772598 -7.21493042 94.35506134 -7.21673584 93.30140686 C-7.22115652 89.90274383 -7.2182156 86.50413236 -7.21484375 83.10546875 C-7.21551673 80.75516754 -7.2164867 78.4048664 -7.21774292 76.05456543 C-7.21922019 71.12149393 -7.21706441 66.1884405 -7.21240234 61.25537109 C-7.20670505 54.91621208 -7.2099839 48.57709539 -7.21597481 42.23793793 C-7.21957964 37.38254474 -7.21844219 32.52716167 -7.21584702 27.67176819 C-7.21517753 25.33366389 -7.21600691 22.99555869 -7.21832657 20.65745544 C-7.22085182 17.39596098 -7.21701429 14.13453612 -7.21142578 10.87304688 C-7.21446213 9.40805504 -7.21446213 9.40805504 -7.21755981 7.91346741 C-7.21473999 7.03005173 -7.21192017 6.14663605 -7.20901489 5.2364502 C-7.20863787 4.4643647 -7.20826084 3.69227921 -7.20787239 2.89679718 C-6.91137757 -1.25013075 -3.3559382 0.00569769 0 0 Z " fill="#343569" transform="translate(76.08203125,385.86328125)"/>
<path d="M0 0 C1.17755859 0.11794922 1.17755859 0.11794922 2.37890625 0.23828125 C4.4375 0.6875 4.4375 0.6875 6.4375 2.6875 C6.33391707 5.24155902 6.11237496 7.607323 5.75 10.125 C5.63108398 11.1469043 5.63108398 11.1469043 5.50976562 12.18945312 C5.1253563 15.01306408 4.71291807 17.27067325 3.12890625 19.66796875 C0.90999896 21.00546252 -0.38199277 20.8328779 -2.9375 20.5625 C-6.65197457 20.44170408 -7.32442309 20.51527415 -10.5 22.8125 C-14.95546924 29.02315409 -14.87903441 35.15155471 -14.94140625 42.51953125 C-14.95840073 43.551884 -14.9753952 44.58423676 -14.99290466 45.64787292 C-15.04587034 48.93185386 -15.0862834 52.21582259 -15.125 55.5 C-15.16889194 58.8019688 -15.21550254 62.10383889 -15.26780701 65.40568542 C-15.29983508 67.45778464 -15.3267028 69.50997184 -15.34803772 71.56221008 C-15.36152756 72.48374374 -15.3750174 73.4052774 -15.38891602 74.35473633 C-15.39842789 75.16936844 -15.40793976 75.98400055 -15.41773987 76.82331848 C-15.5625 78.6875 -15.5625 78.6875 -16.5625 79.6875 C-19.2398138 79.78731214 -21.88554175 79.82629875 -24.5625 79.8125 C-25.68785156 79.81830078 -25.68785156 79.81830078 -26.8359375 79.82421875 C-32.43588947 79.81411053 -32.43588947 79.81411053 -33.5625 78.6875 C-33.66277795 76.28940851 -33.69868676 73.92010502 -33.69189453 71.52148438 C-33.69364685 70.77191971 -33.69539917 70.02235504 -33.69720459 69.25007629 C-33.7016232 66.76044431 -33.6986851 64.27088277 -33.6953125 61.78125 C-33.69598554 60.05871568 -33.69695556 58.33618145 -33.69821167 56.61364746 C-33.69968865 52.99877012 -33.69753407 49.38391745 -33.69287109 45.76904297 C-33.6871738 41.12483507 -33.6904528 36.48068496 -33.69644356 31.83647919 C-33.70004916 28.27813274 -33.69891059 24.7198001 -33.69631577 21.16145325 C-33.69564649 19.44855238 -33.69647493 17.73565028 -33.69879532 16.02275085 C-33.70132183 13.63297178 -33.6974813 11.24328759 -33.69189453 8.85351562 C-33.69391876 8.13867508 -33.69594299 7.42383453 -33.69802856 6.68733215 C-33.67676269 1.80176269 -33.67676269 1.80176269 -32.5625 0.6875 C-29.86595146 0.61430379 -27.19558542 0.59507463 -24.5 0.625 C-23.74138672 0.62951172 -22.98277344 0.63402344 -22.20117188 0.63867188 C-20.32158129 0.6504932 -18.44203101 0.66842922 -16.5625 0.6875 C-15.9025 2.6675 -15.2425 4.6475 -14.5625 6.6875 C-14.09199219 6.26597656 -13.62148438 5.84445312 -13.13671875 5.41015625 C-12.51410156 4.86230469 -11.89148438 4.31445312 -11.25 3.75 C-10.63511719 3.20472656 -10.02023437 2.65945313 -9.38671875 2.09765625 C-6.24451351 -0.33132896 -3.79237988 -0.41859877 0 0 Z " fill="#343569" transform="translate(322.5625,413.3125)"/>
<path d="M0 0 C4.71392229 1.43439977 9.01122966 3.39028144 13.37890625 5.6394043 C14.44841019 6.18357498 14.44841019 6.18357498 15.53952026 6.73873901 C17.07901234 7.52227618 18.61764082 8.30751199 20.15548706 9.09427452 C22.59120076 10.33888437 25.03043817 11.57629979 27.47094727 12.81147766 C34.40670359 16.32200311 41.34023014 19.83669457 48.26074219 23.37719727 C52.50122179 25.54595522 56.74935066 27.69901549 61.00289917 29.84202003 C62.61975685 30.66034307 64.23367268 31.48450602 65.84451294 32.31461143 C68.09618878 33.47419953 70.35707517 34.61352423 72.62109375 35.7487793 C73.28205048 36.09520981 73.9430072 36.44164032 74.62399292 36.79856873 C78.88662773 38.90211708 81.45256665 39.39994307 86 38 C88.60739298 36.86593928 91.10188835 35.69247785 93.62597656 34.39819336 C94.3649115 34.02741165 95.10384644 33.65662994 95.86517334 33.27461243 C98.29409552 32.05368707 100.71723284 30.82170355 103.140625 29.58984375 C104.83078733 28.73848958 106.5213658 27.88796112 108.21234131 27.03822327 C112.65371475 24.80425721 117.0905398 22.56141568 121.52612305 20.315979 C128.63893119 16.71638297 135.75720167 13.12764917 142.87804413 9.54397774 C145.36726432 8.28912026 147.85369554 7.02886139 150.33990479 5.76805115 C151.85704528 5.00265623 153.37427277 4.23743368 154.89160156 3.47241211 C155.58564087 3.11865509 156.27968018 2.76489807 156.99475098 2.40042114 C161.77273247 0 161.77273247 0 164 0 C164 2.64 164 5.28 164 8 C153.6639281 13.24908722 143.32036875 18.48307918 132.9669466 23.6978693 C128.15980376 26.11971562 123.35540722 28.54670804 118.55688477 30.9855957 C113.92701824 33.33852312 109.29046999 35.67775356 104.64894676 38.00759697 C102.87824244 38.89942225 101.11001238 39.79617753 99.34432411 40.69789314 C96.87302048 41.95890616 94.39354423 43.20219107 91.91137695 44.44165039 C90.8162529 45.00808762 90.8162529 45.00808762 89.69900513 45.58596802 C86.90177514 46.96479143 84.64035335 48.01216872 81.48753357 47.95225525 C77.98118586 46.60998673 74.63355543 45.01671588 71.28808594 43.32226562 C70.52818359 42.94333664 69.76828125 42.56440765 68.98535156 42.17399597 C66.4820853 40.92386322 63.98321451 39.66520482 61.484375 38.40625 C59.74537101 37.53521892 58.00613014 36.66466064 56.2666626 35.79455566 C52.62677917 33.97231483 48.98889386 32.14616649 45.35253906 30.31689453 C40.68207256 27.96748672 36.00813803 25.62508462 31.33288193 23.28522491 C27.74448329 21.48895191 24.15722298 19.69041642 20.57038116 17.89103699 C18.84650764 17.0262445 17.12244244 16.161834 15.39818573 15.29780579 C12.99584144 14.0932127 10.59487544 12.88591923 8.19433594 11.67773438 C7.47642883 11.31822189 6.75852173 10.95870941 6.01885986 10.58830261 C1.11469305 8.11469305 1.11469305 8.11469305 0 7 C-0.04092937 4.66702567 -0.04241723 2.33294775 0 0 Z " fill="#2B2D57" transform="translate(194,105)"/>
<path d="M0 0 C4.16182893 2.46064338 7.2247422 5.46230833 9 10 C9.68073835 15.2401022 9.65733258 19.6609892 7.3125 24.4375 C5.02390799 26.97350736 2.81973329 29.0707088 0 31 C-0.66 31 -1.32 31 -2 31 C-1.99555878 31.60943451 -1.99111755 32.21886902 -1.98654175 32.84677124 C-1.94239593 39.17288882 -1.91217013 45.49896285 -1.89013672 51.82519531 C-1.88006076 54.18816911 -1.86639971 56.55113039 -1.84912109 58.9140625 C-1.82494276 62.30471888 -1.81353301 65.69521084 -1.8046875 69.0859375 C-1.79436493 70.14743011 -1.78404236 71.20892273 -1.77340698 72.30258179 C-1.77325592 73.28344757 -1.77310486 74.26431335 -1.77294922 75.27490234 C-1.768508 76.14094086 -1.76406677 77.00697937 -1.75949097 77.89926147 C-2 80 -2 80 -4 82 C-7 82.3125 -7 82.3125 -10 82 C-12.13912767 78.7913085 -12.24470179 77.99760944 -12.22363281 74.31665039 C-12.22413635 73.36879166 -12.22463989 72.42093292 -12.22515869 71.4443512 C-12.21788757 70.42244186 -12.21061646 69.40053253 -12.203125 68.34765625 C-12.21367146 66.188145 -12.22542751 64.02863938 -12.23828125 61.86914062 C-12.24861046 58.46074569 -12.24994515 55.05313531 -12.22998047 51.64477539 C-12.21524703 48.35755522 -12.23763593 45.0722527 -12.265625 41.78515625 C-12.25025696 40.76527115 -12.23488892 39.74538605 -12.21905518 38.69459534 C-12.25623089 35.99828539 -12.34005746 33.61500225 -13 31 C-15.76563761 28.43109945 -15.76563761 28.43109945 -19 27 C-22.41676149 22.41434643 -23.67578864 18.93959769 -23.3828125 13.20703125 C-22.4874982 8.04527026 -20.09693406 4.85068356 -15.9375 1.625 C-10.45161228 -1.4097464 -6.01945856 -1.49574425 0 0 Z M-9.625 10.125 C-12.15323073 11.80550895 -12.15323073 11.80550895 -13 14.4375 C-13.19934483 17.0463176 -13.19934483 17.0463176 -11.8125 19.25 C-9.77860477 21.21376091 -8.81133007 21.82961636 -6 22 C-3.71835976 21.65106834 -3.71835976 21.65106834 -2 20 C-0.91666667 16.58333333 -0.91666667 16.58333333 -1 13 C-3.2423879 9.63641816 -5.80377121 8.48733052 -9.625 10.125 Z " fill="#41A4CE" transform="translate(283,206)"/>
<path d="M0 0 C4.30764815 1.56641751 8.06171464 3.68336156 12 6 C12 8.31 12 10.62 12 13 C10.56068883 12.54738642 9.12361001 12.08767021 7.6875 11.625 C6.48673828 11.24214844 6.48673828 11.24214844 5.26171875 10.8515625 C3 10 3 10 0 8 C-0.40843923 5.28796348 -0.13336867 2.7562858 0 0 Z " fill="#3D9F8E" transform="translate(153,84)"/>
</svg>
